<svg width="30" height="30" viewBox="0 0 30 30" fill="none" xmlns="http://www.w3.org/2000/svg">
<path d="M15 1.00001C7.268 1.00001 1 7.26801 1 15C1 22.732 7.268 29 15 29C22.732 29 29 22.732 29 15C29 7.26801 22.732 1.00001 15 1.00001Z" fill="#666666" stroke="black" stroke-width="2"/>
<path d="M16 10L11 15L16 20" stroke="white"/>
<path d="M15 29C7.26801 29 1 22.732 1 15C1 7.26801 7.26801 0.999999 15 0.999999C22.732 1 29 7.26801 29 15C29 22.732 22.732 29 15 29Z" fill="#ECECEC" stroke="#9D5CD0" stroke-width="2"/>
<path d="M16 20L11 15L16 10" stroke="black"/>
</svg>
