<svg width="30" height="30" viewBox="0 0 30 30" fill="none" xmlns="http://www.w3.org/2000/svg">
<path d="M15 30C6.71573 30 8.89561e-07 23.2843 1.25168e-06 15C1.61379e-06 6.71572 6.71573 -4.83249e-06 15 -4.47037e-06C23.2843 -4.10825e-06 30 6.71573 30 15C30 23.2843 23.2843 30 15 30Z" fill="#ECECEC"/>
<path d="M15 30C6.71573 30 8.89561e-07 23.2843 1.25168e-06 15C1.61379e-06 6.71572 6.71573 -4.83249e-06 15 -4.47037e-06C23.2843 -4.10825e-06 30 6.71573 30 15C30 23.2843 23.2843 30 15 30Z" stroke="black"/>
<path d="M16 20L11 15L16 9.99999" stroke="black"/>
</svg>
